<?xml version="1.0" encoding="utf-8"?>
<!-- Generator: Adobe Illustrator 19.2.0, SVG Export Plug-In . SVG Version: 6.00 Build 0)  -->
<svg version="1.1" id="Layer_1" xmlns="http://www.w3.org/2000/svg" xmlns:xlink="http://www.w3.org/1999/xlink" x="0px" y="0px"
	 viewBox="0 0 500 500" style="enable-background:new 0 0 500 500;" xml:space="preserve">
<circle cx="280.6" cy="256.4" r="0.1"/>
<circle cx="282.2" cy="256.4" r="0.2"/>
<circle cx="283.9" cy="256.2" r="0.4"/>
<circle cx="285.8" cy="255.7" r="0.5"/>
<circle cx="287.7" cy="254.8" r="0.6"/>
<circle cx="289.6" cy="253.5" r="0.8"/>
<circle cx="291.4" cy="251.7" r="0.9"/>
<circle cx="292.8" cy="249.4" r="1"/>
<circle cx="293.8" cy="246.7" r="1.1"/>
<circle cx="294.1" cy="243.9" r="1.2"/>
<circle cx="293.7" cy="241" r="1.1"/>
<circle cx="292.7" cy="238.2" r="1"/>
<circle cx="291.2" cy="235.9" r="0.9"/>
<circle cx="289.4" cy="234.1" r="0.8"/>
<circle cx="287.5" cy="232.7" r="0.6"/>
<circle cx="285.6" cy="231.8" r="0.5"/>
<circle cx="283.7" cy="231.2" r="0.4"/>
<circle cx="282" cy="231" r="0.2"/>
<circle cx="280.5" cy="230.9" r="0.1"/>
<circle cx="279.1" cy="231" r="0"/>
<circle cx="280.5" cy="258" r="0.2"/>
<circle cx="282.3" cy="258.2" r="0.5"/>
<circle cx="284.3" cy="258.2" r="0.8"/>
<circle cx="286.6" cy="257.9" r="1"/>
<circle cx="289" cy="257.1" r="1.2"/>
<circle cx="291.5" cy="255.8" r="1.5"/>
<circle cx="293.9" cy="253.8" r="1.8"/>
<circle cx="296" cy="251.1" r="2"/>
<circle cx="297.3" cy="247.9" r="2.2"/>
<circle cx="297.9" cy="244.3" r="2.5"/>
<circle cx="297.3" cy="240.5" r="2.2"/>
<circle cx="295.8" cy="237.1" r="2"/>
<circle cx="293.7" cy="234.3" r="1.8"/>
<circle cx="291.3" cy="232.2" r="1.5"/>
<circle cx="288.8" cy="230.8" r="1.2"/>
<circle cx="286.4" cy="229.9" r="1"/>
<circle cx="284.1" cy="229.5" r="0.8"/>
<circle cx="282.1" cy="229.4" r="0.5"/>
<circle cx="280.4" cy="229.5" r="0.2"/>
<circle cx="278.9" cy="229.7" r="0"/>
<circle cx="280.2" cy="259.6" r="0.4"/>
<circle cx="282.2" cy="260.2" r="0.8"/>
<circle cx="284.5" cy="260.6" r="1.1"/>
<circle cx="287.2" cy="260.6" r="1.5"/>
<circle cx="290.3" cy="260.1" r="1.9"/>
<circle cx="293.5" cy="258.9" r="2.2"/>
<circle cx="296.8" cy="256.7" r="2.6"/>
<circle cx="299.7" cy="253.5" r="3"/>
<circle cx="301.8" cy="249.3" r="3.4"/>
<circle cx="302.6" cy="244.6" r="3.8"/>
<circle cx="301.7" cy="239.7" r="3.4"/>
<circle cx="299.5" cy="235.3" r="3"/>
<circle cx="296.5" cy="232" r="2.6"/>
<circle cx="293.2" cy="229.7" r="2.2"/>
<circle cx="290" cy="228.3" r="1.9"/>
<circle cx="287" cy="227.6" r="1.5"/>
<circle cx="284.3" cy="227.4" r="1.1"/>
<circle cx="282" cy="227.6" r="0.8"/>
<circle cx="280.1" cy="227.9" r="0.4"/>
<circle cx="278.4" cy="228.3" r="0"/>
<circle cx="279.6" cy="261.4" r="0.5"/>
<circle cx="281.8" cy="262.4" r="1"/>
<circle cx="284.4" cy="263.2" r="1.5"/>
<circle cx="287.5" cy="263.7" r="2"/>
<circle cx="291.2" cy="263.7" r="2.5"/>
<circle cx="295.5" cy="262.9" r="3"/>
<circle cx="300.1" cy="260.7" r="3.5"/>
<circle cx="304.4" cy="256.9" r="4"/>
<circle cx="307.6" cy="251.4" r="4.5"/>
<circle cx="308.8" cy="244.9" r="5"/>
<circle cx="307.4" cy="238.2" r="4.5"/>
<circle cx="304" cy="232.5" r="4"/>
<circle cx="299.6" cy="228.6" r="3.5"/>
<circle cx="295.1" cy="226.2" r="3"/>
<circle cx="290.9" cy="225.1" r="2.5"/>
<circle cx="287.2" cy="224.8" r="2"/>
<circle cx="284.1" cy="225.1" r="1.5"/>
<circle cx="281.5" cy="225.6" r="1"/>
<circle cx="279.4" cy="226.2" r="0.5"/>
<circle cx="277.7" cy="226.9" r="0"/>
<circle cx="278.6" cy="263.3" r="0.6"/>
<circle cx="280.8" cy="264.7" r="1.2"/>
<circle cx="283.6" cy="266.2" r="1.9"/>
<circle cx="287.2" cy="267.4" r="2.5"/>
<circle cx="291.6" cy="268.2" r="3.1"/>
<circle cx="297.1" cy="268.1" r="3.8"/>
<circle cx="303.6" cy="266.3" r="4.4"/>
<circle cx="310.2" cy="262" r="5"/>
<circle cx="315.5" cy="254.7" r="5.6"/>
<circle cx="317.5" cy="245.2" r="6.2"/>
<circle cx="315.1" cy="235.4" r="5.6"/>
<circle cx="309.6" cy="228" r="5"/>
<circle cx="302.9" cy="223.5" r="4.4"/>
<circle cx="296.6" cy="221.5" r="3.8"/>
<circle cx="291.2" cy="221.1" r="3.1"/>
<circle cx="286.8" cy="221.5" r="2.5"/>
<circle cx="283.4" cy="222.4" r="1.9"/>
<circle cx="280.6" cy="223.4" r="1.2"/>
<circle cx="278.4" cy="224.5" r="0.6"/>
<circle cx="276.7" cy="225.5" r="0"/>
<circle cx="277.2" cy="265.1" r="0.8"/>
<circle cx="279.4" cy="267.1" r="1.5"/>
<circle cx="282.2" cy="269.3" r="2.2"/>
<circle cx="285.9" cy="271.5" r="3"/>
<circle cx="291" cy="273.6" r="3.7"/>
<circle cx="297.8" cy="275.1" r="4.5"/>
<circle cx="306.6" cy="274.6" r="5.3"/>
<circle cx="317.2" cy="270.4" r="6"/>
<circle cx="326.7" cy="260.3" r="6.8"/>
<circle cx="330.7" cy="245.3" r="7.5"/>
<circle cx="326" cy="230.1" r="6.8"/>
<circle cx="316.1" cy="220.2" r="6"/>
<circle cx="305.7" cy="215.9" r="5.2"/>
<circle cx="297" cy="215.2" r="4.5"/>
<circle cx="290.4" cy="216.2" r="3.8"/>
<circle cx="285.5" cy="217.9" r="3"/>
<circle cx="281.9" cy="219.7" r="2.2"/>
<circle cx="279.2" cy="221.3" r="1.5"/>
<circle cx="277" cy="222.8" r="0.8"/>
<circle cx="275.4" cy="224.1" r="0"/>
<circle cx="275.3" cy="266.7" r="0.9"/>
<circle cx="277.3" cy="269.3" r="1.8"/>
<circle cx="279.9" cy="272.3" r="2.6"/>
<circle cx="283.4" cy="275.7" r="3.5"/>
<circle cx="288.5" cy="279.7" r="4.4"/>
<circle cx="296.2" cy="283.7" r="5.2"/>
<circle cx="307.7" cy="286.6" r="6.1"/>
<circle cx="324.6" cy="285" r="7"/>
<circle cx="344" cy="272" r="7.9"/>
<circle cx="353.3" cy="245" r="8.8"/>
<circle cx="342.2" cy="218.5" r="7.9"/>
<circle cx="322.7" cy="206.4" r="7"/>
<circle cx="306.4" cy="204.8" r="6.1"/>
<circle cx="295.3" cy="207.4" r="5.2"/>
<circle cx="287.9" cy="210.9" r="4.4"/>
<circle cx="283" cy="214.2" r="3.5"/>
<circle cx="279.6" cy="217" r="2.6"/>
<circle cx="277.1" cy="219.4" r="1.8"/>
<circle cx="275.2" cy="221.4" r="0.9"/>
<circle cx="273.7" cy="223" r="0"/>
<circle cx="273.1" cy="267.9" r="1"/>
<circle cx="274.6" cy="271" r="2"/>
<circle cx="276.6" cy="274.8" r="3"/>
<circle cx="279.4" cy="279.5" r="4"/>
<circle cx="283.7" cy="285.4" r="5"/>
<circle cx="290.6" cy="293.1" r="6"/>
<circle cx="303.1" cy="302.4" r="7"/>
<circle cx="327.3" cy="310.9" r="8"/>
<circle cx="370.7" cy="302.1" r="9"/>
<circle cx="401.9" cy="243.1" r="10"/>
<circle cx="365.7" cy="188.3" r="9"/>
<circle cx="324.1" cy="182.1" r="8"/>
<circle cx="301.5" cy="190.4" r="7"/>
<circle cx="289.8" cy="199" r="6"/>
<circle cx="283.2" cy="205.8" r="5"/>
<circle cx="279.1" cy="210.9" r="4"/>
<circle cx="276.4" cy="214.8" r="3"/>
<circle cx="274.4" cy="217.9" r="2"/>
<circle cx="273" cy="220.2" r="1"/>
<circle cx="271.8" cy="222.1" r="0"/>
<circle cx="270.5" cy="268.7" r="1.1"/>
<circle cx="271.4" cy="272.1" r="2.2"/>
<circle cx="272.5" cy="276.4" r="3.4"/>
<circle cx="274" cy="281.9" r="4.5"/>
<circle cx="276.3" cy="289.5" r="5.6"/>
<circle cx="280.1" cy="300.4" r="6.8"/>
<circle cx="287.8" cy="317.5" r="7.9"/>
<circle cx="307.5" cy="347.5" r="9"/>
<circle cx="383.4" cy="398.1" r="10.1"/>
<circle cx="586.3" cy="225" r="11.2"/>
<circle cx="369.4" cy="100.9" r="10.1"/>
<circle cx="304.4" cy="149.6" r="9"/>
<circle cx="286.8" cy="177.1" r="7.9"/>
<circle cx="279.7" cy="192.6" r="6.8"/>
<circle cx="276.1" cy="202.3" r="5.6"/>
<circle cx="273.9" cy="208.9" r="4.5"/>
<circle cx="272.4" cy="213.5" r="3.4"/>
<circle cx="271.3" cy="217" r="2.2"/>
<circle cx="270.5" cy="219.6" r="1.1"/>
<circle cx="269.7" cy="221.6" r="0"/>
<circle cx="267.8" cy="268.8" r="1.2"/>
<circle cx="268" cy="272.4" r="2.5"/>
<circle cx="268.1" cy="276.8" r="3.8"/>
<circle cx="268" cy="282.5" r="5"/>
<circle cx="267.6" cy="290.4" r="6.2"/>
<circle cx="266.5" cy="302.1" r="7.5"/>
<circle cx="263.6" cy="321.1" r="8.8"/>
<circle cx="254.5" cy="358.3" r="10"/>
<circle cx="205.3" cy="460.4" r="11.3"/>
<circle cx="-452.7" cy="125.8" r="12.5"/>
<circle cx="216.5" cy="51.5" r="11.2"/>
<circle cx="256.1" cy="140.8" r="10"/>
<circle cx="264.1" cy="174.4" r="8.8"/>
<circle cx="266.7" cy="191.5" r="7.5"/>
<circle cx="267.7" cy="201.8" r="6.2"/>
<circle cx="268" cy="208.6" r="5"/>
<circle cx="268.1" cy="213.4" r="3.8"/>
<circle cx="268" cy="216.9" r="2.5"/>
<circle cx="267.8" cy="219.5" r="1.2"/>
<circle cx="267.5" cy="221.5" r="0"/>
<circle cx="265" cy="268.3" r="1.1"/>
<circle cx="264.5" cy="271.6" r="2.2"/>
<circle cx="263.5" cy="275.6" r="3.4"/>
<circle cx="261.9" cy="280.8" r="4.5"/>
<circle cx="259" cy="287.5" r="5.6"/>
<circle cx="253.8" cy="296.6" r="6.8"/>
<circle cx="243.1" cy="309.4" r="7.9"/>
<circle cx="218.6" cy="325.6" r="9"/>
<circle cx="160.1" cy="328.6" r="10.1"/>
<circle cx="100.9" cy="240.8" r="11.2"/>
<circle cx="168.1" cy="163.2" r="10.1"/>
<circle cx="222.2" cy="169.2" r="9"/>
<circle cx="244.6" cy="184.5" r="7.9"/>
<circle cx="254.5" cy="196.1" r="6.8"/>
<circle cx="259.5" cy="204.2" r="5.6"/>
<circle cx="262.2" cy="210" r="4.5"/>
<circle cx="263.7" cy="214.2" r="3.4"/>
<circle cx="264.6" cy="217.5" r="2.2"/>
<circle cx="265.1" cy="219.9" r="1.1"/>
<circle cx="265.4" cy="221.9" r="0"/>
<circle cx="262.5" cy="267.2" r="1"/>
<circle cx="261.4" cy="270.1" r="2"/>
<circle cx="259.7" cy="273.4" r="3"/>
<circle cx="257" cy="277.4" r="4"/>
<circle cx="252.7" cy="282.2" r="5"/>
<circle cx="245.7" cy="287.7" r="6"/>
<circle cx="234" cy="292.8" r="7"/>
<circle cx="214.6" cy="294" r="8"/>
<circle cx="188.6" cy="280.8" r="9"/>
<circle cx="174.8" cy="244.8" r="10"/>
<circle cx="191.2" cy="210" r="9"/>
<circle cx="217" cy="198.2" r="8"/>
<circle cx="235.5" cy="199.5" r="7"/>
<circle cx="246.6" cy="204.1" r="6"/>
<circle cx="253.3" cy="208.8" r="5"/>
<circle cx="257.3" cy="212.8" r="4"/>
<circle cx="259.9" cy="216.1" r="3"/>
<circle cx="261.6" cy="218.8" r="2"/>
<circle cx="262.7" cy="220.9" r="1"/>
<circle cx="263.4" cy="222.6" r="0"/>
<circle cx="260.4" cy="265.8" r="0.9"/>
<circle cx="258.9" cy="268" r="1.8"/>
<circle cx="256.7" cy="270.6" r="2.6"/>
<circle cx="253.5" cy="273.4" r="3.5"/>
<circle cx="248.9" cy="276.2" r="4.4"/>
<circle cx="242.3" cy="278.5" r="5.2"/>
<circle cx="232.8" cy="279.1" r="6.1"/>
<circle cx="220.6" cy="275.5" r="7"/>
<circle cx="208.6" cy="264.2" r="7.9"/>
<circle cx="203.7" cy="245.5" r="8.8"/>
<circle cx="209.6" cy="226.8" r="7.9"/>
<circle cx="221.9" cy="215.7" r="7"/>
<circle cx="233.9" cy="212.1" r="6.1"/>
<circle cx="243.1" cy="212.4" r="5.2"/>
<circle cx="249.5" cy="214.2" r="4.4"/>
<circle cx="253.9" cy="216.5" r="3.5"/>
<circle cx="257" cy="218.6" r="2.6"/>
<circle cx="259.1" cy="220.6" r="1.8"/>
<circle cx="260.6" cy="222.2" r="0.9"/>
<circle cx="261.6" cy="223.6" r="0"/>
<circle cx="258.7" cy="264" r="0.8"/>
<circle cx="257" cy="265.7" r="1.5"/>
<circle cx="254.6" cy="267.5" r="2.2"/>
<circle cx="251.5" cy="269.2" r="3"/>
<circle cx="247.2" cy="270.5" r="3.8"/>
<circle cx="241.7" cy="270.9" r="4.5"/>
<circle cx="234.8" cy="269.5" r="5.2"/>
<circle cx="227.3" cy="265.1" r="6"/>
<circle cx="221.1" cy="256.8" r="6.8"/>
<circle cx="219" cy="245.5" r="7.5"/>
<circle cx="221.6" cy="233.9" r="6.8"/>
<circle cx="228.1" cy="225.5" r="6"/>
<circle cx="235.5" cy="221" r="5.2"/>
<circle cx="242.3" cy="219.3" r="4.5"/>
<circle cx="247.7" cy="219.3" r="3.8"/>
<circle cx="251.8" cy="220.2" r="3"/>
<circle cx="254.9" cy="221.4" r="2.2"/>
<circle cx="257.2" cy="222.6" r="1.5"/>
<circle cx="258.9" cy="223.8" r="0.8"/>
<circle cx="260.2" cy="224.9" r="0"/>
<circle cx="257.5" cy="262.2" r="0.6"/>
<circle cx="255.7" cy="263.4" r="1.2"/>
<circle cx="253.4" cy="264.5" r="1.9"/>
<circle cx="250.5" cy="265.3" r="2.5"/>
<circle cx="246.8" cy="265.6" r="3.1"/>
<circle cx="242.5" cy="265" r="3.8"/>
<circle cx="237.6" cy="262.9" r="4.4"/>
<circle cx="232.9" cy="258.9" r="5"/>
<circle cx="229.4" cy="252.8" r="5.6"/>
<circle cx="228.3" cy="245.3" r="6.2"/>
<circle cx="229.7" cy="237.5" r="5.6"/>
<circle cx="233.4" cy="231.2" r="5"/>
<circle cx="238.1" cy="226.9" r="4.4"/>
<circle cx="243" cy="224.6" r="3.8"/>
<circle cx="247.2" cy="223.7" r="3.1"/>
<circle cx="250.8" cy="223.7" r="2.5"/>
<circle cx="253.7" cy="224.1" r="1.9"/>
<circle cx="255.9" cy="224.8" r="1.2"/>
<circle cx="257.7" cy="225.5" r="0.6"/>
<circle cx="259.1" cy="226.3" r="0"/>
<circle cx="256.7" cy="260.4" r="0.5"/>
<circle cx="254.9" cy="261.1" r="1"/>
<circle cx="252.8" cy="261.7" r="1.5"/>
<circle cx="250.2" cy="261.9" r="2"/>
<circle cx="247.2" cy="261.6" r="2.5"/>
<circle cx="243.9" cy="260.5" r="3"/>
<circle cx="240.4" cy="258.3" r="3.5"/>
<circle cx="237.3" cy="254.9" r="4"/>
<circle cx="235.2" cy="250.3" r="4.5"/>
<circle cx="234.6" cy="245" r="5"/>
<circle cx="235.3" cy="239.4" r="4.5"/>
<circle cx="237.6" cy="234.6" r="4"/>
<circle cx="240.8" cy="230.9" r="3.5"/>
<circle cx="244.2" cy="228.6" r="3"/>
<circle cx="247.5" cy="227.2" r="2.5"/>
<circle cx="250.5" cy="226.6" r="2"/>
<circle cx="253" cy="226.6" r="1.5"/>
<circle cx="255.1" cy="226.8" r="1"/>
<circle cx="256.8" cy="227.2" r="0.5"/>
<circle cx="258.2" cy="227.7" r="0"/>
<circle cx="256.1" cy="258.7" r="0.4"/>
<circle cx="254.5" cy="259" r="0.7"/>
<circle cx="252.6" cy="259.2" r="1.1"/>
<circle cx="250.4" cy="259" r="1.5"/>
<circle cx="248" cy="258.4" r="1.9"/>
<circle cx="245.4" cy="257.1" r="2.2"/>
<circle cx="242.9" cy="255.1" r="2.6"/>
<circle cx="240.8" cy="252.2" r="3"/>
<circle cx="239.4" cy="248.6" r="3.4"/>
<circle cx="239" cy="244.7" r="3.8"/>
<circle cx="239.5" cy="240.4" r="3.4"/>
<circle cx="241" cy="236.7" r="3"/>
<circle cx="243.1" cy="233.7" r="2.6"/>
<circle cx="245.7" cy="231.4" r="2.2"/>
<circle cx="248.2" cy="230" r="1.9"/>
<circle cx="250.6" cy="229.1" r="1.5"/>
<circle cx="252.8" cy="228.8" r="1.1"/>
<circle cx="254.7" cy="228.7" r="0.8"/>
<circle cx="256.3" cy="228.9" r="0.4"/>
<circle cx="257.7" cy="229.1" r="0"/>
<circle cx="255.9" cy="257" r="0.2"/>
<circle cx="254.4" cy="257.2" r="0.5"/>
<circle cx="252.7" cy="257" r="0.8"/>
<circle cx="250.8" cy="256.6" r="1"/>
<circle cx="248.8" cy="255.8" r="1.2"/>
<circle cx="246.8" cy="254.5" r="1.5"/>
<circle cx="245" cy="252.6" r="1.8"/>
<circle cx="243.5" cy="250.2" r="2"/>
<circle cx="242.5" cy="247.4" r="2.2"/>
<circle cx="242.2" cy="244.3" r="2.5"/>
<circle cx="242.6" cy="241" r="2.2"/>
<circle cx="243.6" cy="238" r="2"/>
<circle cx="245.2" cy="235.5" r="1.8"/>
<circle cx="247.1" cy="233.6" r="1.5"/>
<circle cx="249.1" cy="232.1" r="1.2"/>
<circle cx="251" cy="231.2" r="1"/>
<circle cx="252.9" cy="230.6" r="0.7"/>
<circle cx="254.6" cy="230.4" r="0.5"/>
<circle cx="256" cy="230.4" r="0.2"/>
<circle cx="257.3" cy="230.5" r="0"/>
<circle cx="255.8" cy="255.6" r="0.1"/>
<circle cx="254.5" cy="255.5" r="0.2"/>
<circle cx="253" cy="255.2" r="0.4"/>
<circle cx="251.4" cy="254.6" r="0.5"/>
<circle cx="249.8" cy="253.7" r="0.6"/>
<circle cx="248.2" cy="252.5" r="0.8"/>
<circle cx="246.8" cy="250.8" r="0.9"/>
<circle cx="245.6" cy="248.7" r="1"/>
<circle cx="244.9" cy="246.4" r="1.1"/>
<circle cx="244.7" cy="243.9" r="1.2"/>
<circle cx="245" cy="241.3" r="1.1"/>
<circle cx="245.7" cy="238.9" r="1"/>
<circle cx="246.9" cy="236.8" r="0.9"/>
<circle cx="248.3" cy="235.1" r="0.8"/>
<circle cx="249.9" cy="233.8" r="0.6"/>
<circle cx="251.6" cy="232.9" r="0.5"/>
<circle cx="253.1" cy="232.2" r="0.4"/>
<circle cx="254.6" cy="231.9" r="0.2"/>
<circle cx="256" cy="231.7" r="0.1"/>
<circle cx="257.2" cy="231.7" r="0"/>
<circle cx="255.9" cy="254.3" r="0"/>
<circle cx="254.7" cy="254.1" r="0"/>
<circle cx="253.4" cy="253.6" r="0"/>
<circle cx="252" cy="253" r="0"/>
<circle cx="250.7" cy="252" r="0"/>
<circle cx="249.4" cy="250.8" r="0"/>
<circle cx="248.2" cy="249.3" r="0"/>
<circle cx="247.3" cy="247.6" r="0"/>
<circle cx="246.8" cy="245.6" r="0"/>
<circle cx="246.6" cy="243.5" r="0"/>
<circle cx="246.8" cy="241.4" r="0"/>
<circle cx="247.4" cy="239.5" r="0"/>
<circle cx="248.3" cy="237.7" r="0"/>
<circle cx="249.5" cy="236.3" r="0"/>
<circle cx="250.8" cy="235.1" r="0"/>
<circle cx="252.1" cy="234.2" r="0"/>
<circle cx="253.5" cy="233.6" r="0"/>
<circle cx="254.8" cy="233.1" r="0"/>
<circle cx="256" cy="232.9" r="0"/>
<circle cx="257.1" cy="232.8" r="0"/>
</svg>
