<?xml version="1.0" encoding="utf-8"?>
<!-- Generator: Adobe Illustrator 19.2.0, SVG Export Plug-In . SVG Version: 6.00 Build 0)  -->
<svg version="1.1" id="Layer_1" xmlns="http://www.w3.org/2000/svg" xmlns:xlink="http://www.w3.org/1999/xlink" x="0px" y="0px"
	 viewBox="0 0 500 500" style="enable-background:new 0 0 500 500;" xml:space="preserve">
<g>
	<circle cx="267" cy="269.4" r="0.2"/>
	<circle cx="270.7" cy="269.4" r="0.3"/>
	<circle cx="274.9" cy="268.6" r="0.5"/>
	<circle cx="279.4" cy="266.7" r="0.6"/>
	<circle cx="284" cy="263.4" r="0.8"/>
	<circle cx="287.9" cy="258.6" r="0.9"/>
	<circle cx="290.5" cy="252.4" r="1.1"/>
	<circle cx="291.2" cy="245.5" r="1.2"/>
	<circle cx="289.6" cy="238.7" r="1.1"/>
	<circle cx="286.3" cy="233" r="0.9"/>
	<circle cx="282" cy="228.8" r="0.8"/>
	<circle cx="277.4" cy="226.1" r="0.6"/>
	<circle cx="273" cy="224.6" r="0.5"/>
	<circle cx="269" cy="224.1" r="0.3"/>
	<circle cx="265.6" cy="224.2" r="0.2"/>
	<circle cx="262.7" cy="224.6" r="0"/>
	<circle cx="266.6" cy="273" r="0.3"/>
	<circle cx="270.9" cy="273.7" r="0.6"/>
	<circle cx="276.1" cy="273.6" r="0.9"/>
	<circle cx="282.1" cy="272.3" r="1.2"/>
	<circle cx="288.6" cy="268.9" r="1.6"/>
	<circle cx="294.6" cy="263.1" r="1.9"/>
	<circle cx="298.8" cy="254.9" r="2.2"/>
	<circle cx="299.9" cy="245.3" r="2.5"/>
	<circle cx="297.3" cy="235.9" r="2.2"/>
	<circle cx="292.1" cy="228.5" r="1.9"/>
	<circle cx="285.7" cy="223.6" r="1.6"/>
	<circle cx="279.4" cy="221" r="1.2"/>
	<circle cx="273.7" cy="220.1" r="0.9"/>
	<circle cx="268.9" cy="220.2" r="0.6"/>
	<circle cx="265" cy="220.9" r="0.3"/>
	<circle cx="261.8" cy="221.9" r="0"/>
	<circle cx="265.4" cy="277.1" r="0.5"/>
	<circle cx="270.2" cy="278.8" r="0.9"/>
	<circle cx="276.4" cy="280" r="1.4"/>
	<circle cx="284.3" cy="279.8" r="1.9"/>
	<circle cx="293.6" cy="277" r="2.3"/>
	<circle cx="303.1" cy="270.3" r="2.8"/>
	<circle cx="310.4" cy="258.9" r="3.3"/>
	<circle cx="312.3" cy="244.6" r="3.8"/>
	<circle cx="307.7" cy="230.9" r="3.3"/>
	<circle cx="299" cy="221.3" r="2.8"/>
	<circle cx="289.3" cy="216.2" r="2.3"/>
	<circle cx="280.6" cy="214.4" r="1.9"/>
	<circle cx="273.5" cy="214.6" r="1.4"/>
	<circle cx="267.9" cy="215.8" r="0.9"/>
	<circle cx="263.6" cy="217.4" r="0.5"/>
	<circle cx="260.3" cy="219.1" r="0"/>
	<circle cx="263.1" cy="281.2" r="0.6"/>
	<circle cx="268.1" cy="284.5" r="1.2"/>
	<circle cx="275.1" cy="287.6" r="1.9"/>
	<circle cx="284.9" cy="289.8" r="2.5"/>
	<circle cx="298" cy="289.2" r="3.1"/>
	<circle cx="313.8" cy="282.5" r="3.8"/>
	<circle cx="327.7" cy="266.3" r="4.4"/>
	<circle cx="331.6" cy="242.8" r="5"/>
	<circle cx="322.3" cy="221.3" r="4.4"/>
	<circle cx="306.6" cy="209.2" r="3.8"/>
	<circle cx="291.7" cy="205.3" r="3.1"/>
	<circle cx="280.2" cy="205.9" r="2.5"/>
	<circle cx="271.8" cy="208.2" r="1.9"/>
	<circle cx="265.7" cy="211.1" r="1.2"/>
	<circle cx="261.3" cy="213.9" r="0.6"/>
	<circle cx="258.1" cy="216.4" r="0"/>
	<circle cx="259.5" cy="285.2" r="0.8"/>
	<circle cx="264.1" cy="290.2" r="1.6"/>
	<circle cx="271.1" cy="296" r="2.3"/>
	<circle cx="281.8" cy="302.4" r="3.1"/>
	<circle cx="299.1" cy="307.3" r="3.9"/>
	<circle cx="325.4" cy="305.1" r="4.7"/>
	<circle cx="356" cy="282.9" r="5.5"/>
	<circle cx="366.1" cy="237.8" r="6.2"/>
	<circle cx="342.9" cy="200.6" r="5.5"/>
	<circle cx="312.5" cy="188.7" r="4.7"/>
	<circle cx="290.4" cy="190.3" r="3.9"/>
	<circle cx="276.5" cy="195.8" r="3.1"/>
	<circle cx="267.7" cy="201.5" r="2.3"/>
	<circle cx="261.9" cy="206.4" r="1.6"/>
	<circle cx="258" cy="210.6" r="0.8"/>
	<circle cx="255.1" cy="214" r="0"/>
	<circle cx="254.5" cy="288.4" r="0.9"/>
	<circle cx="258" cy="295" r="1.9"/>
	<circle cx="263.4" cy="303.8" r="2.8"/>
	<circle cx="272.6" cy="315.6" r="3.8"/>
	<circle cx="290.3" cy="331.2" r="4.7"/>
	<circle cx="328.1" cy="347.6" r="5.6"/>
	<circle cx="404.8" cy="333" r="6.6"/>
	<circle cx="445.3" cy="218.5" r="7.5"/>
	<circle cx="365.5" cy="149.2" r="6.6"/>
	<circle cx="307.4" cy="156.1" r="5.6"/>
	<circle cx="280.9" cy="172.6" r="4.7"/>
	<circle cx="267.9" cy="185.9" r="3.7"/>
	<circle cx="260.7" cy="195.5" r="2.8"/>
	<circle cx="256.4" cy="202.6" r="1.9"/>
	<circle cx="253.5" cy="208" r="0.9"/>
	<circle cx="251.5" cy="212.1" r="0"/>
	<circle cx="248.6" cy="290.1" r="1.1"/>
	<circle cx="250" cy="297.8" r="2.2"/>
	<circle cx="252.2" cy="308.6" r="3.3"/>
	<circle cx="255.9" cy="324.7" r="4.4"/>
	<circle cx="263.8" cy="351.4" r="5.5"/>
	<circle cx="286.8" cy="404" r="6.6"/>
	<circle cx="411.9" cy="532.3" r="7.7"/>
	<circle cx="768.8" cy="-11.7" r="8.8"/>
	<circle cx="325.1" cy="38.4" r="7.7"/>
	<circle cx="273.1" cy="122.3" r="6.6"/>
	<circle cx="259.6" cy="159.4" r="5.5"/>
	<circle cx="254.1" cy="179.6" r="4.4"/>
	<circle cx="251.2" cy="192.1" r="3.3"/>
	<circle cx="249.5" cy="200.6" r="2.2"/>
	<circle cx="248.2" cy="206.6" r="1.1"/>
	<circle cx="247.3" cy="211.2" r="0"/>
	<circle cx="242.3" cy="290.1" r="1.2"/>
	<circle cx="241.4" cy="297.8" r="2.5"/>
	<circle cx="239.6" cy="308.5" r="3.7"/>
	<circle cx="235.9" cy="324.4" r="5"/>
	<circle cx="227.3" cy="350.4" r="6.2"/>
	<circle cx="201.1" cy="399.7" r="7.5"/>
	<circle cx="69.7" cy="500.6" r="8.8"/>
	<circle cx="-206.3" cy="64.1" r="10"/>
	<circle cx="158.8" cy="50.7" r="8.8"/>
	<circle cx="217.1" cy="125.1" r="7.5"/>
	<circle cx="232.4" cy="160.5" r="6.2"/>
	<circle cx="238.1" cy="180.2" r="5"/>
	<circle cx="240.8" cy="192.5" r="3.8"/>
	<circle cx="242.1" cy="200.8" r="2.5"/>
	<circle cx="242.7" cy="206.8" r="1.2"/>
	<circle cx="243" cy="211.2" r="0"/>
	<circle cx="236.3" cy="288.1" r="1.1"/>
	<circle cx="233.4" cy="294.7" r="2.2"/>
	<circle cx="228.4" cy="303.3" r="3.3"/>
	<circle cx="219.5" cy="314.5" r="4.4"/>
	<circle cx="202.2" cy="329" r="5.5"/>
	<circle cx="165.7" cy="342.5" r="6.6"/>
	<circle cx="96.7" cy="324.7" r="7.7"/>
	<circle cx="63.3" cy="222.7" r="8.8"/>
	<circle cx="131.6" cy="157.4" r="7.7"/>
	<circle cx="185.8" cy="160.2" r="6.6"/>
	<circle cx="211.7" cy="174.7" r="5.5"/>
	<circle cx="224.4" cy="187" r="4.4"/>
	<circle cx="231.2" cy="196.2" r="3.3"/>
	<circle cx="235" cy="203.1" r="2.2"/>
	<circle cx="237.4" cy="208.3" r="1.1"/>
	<circle cx="238.9" cy="212.3" r="0"/>
	<circle cx="231.4" cy="284.9" r="0.9"/>
	<circle cx="227.2" cy="289.8" r="1.9"/>
	<circle cx="220.8" cy="295.4" r="2.8"/>
	<circle cx="210.6" cy="301.2" r="3.8"/>
	<circle cx="194.3" cy="305.5" r="4.7"/>
	<circle cx="169.8" cy="302.4" r="5.6"/>
	<circle cx="142.4" cy="280.8" r="6.6"/>
	<circle cx="133.9" cy="239.1" r="7.5"/>
	<circle cx="154.2" cy="204" r="6.6"/>
	<circle cx="182" cy="191.7" r="5.6"/>
	<circle cx="202.7" cy="192.4" r="4.7"/>
	<circle cx="215.9" cy="197.1" r="3.8"/>
	<circle cx="224.2" cy="202.3" r="2.8"/>
	<circle cx="229.5" cy="207" r="1.9"/>
	<circle cx="232.9" cy="210.9" r="0.9"/>
	<circle cx="235.3" cy="214.2" r="0"/>
	<circle cx="227.8" cy="280.9" r="0.8"/>
	<circle cx="223.2" cy="284" r="1.6"/>
	<circle cx="216.8" cy="287" r="2.3"/>
	<circle cx="207.7" cy="288.9" r="3.1"/>
	<circle cx="195.4" cy="288" r="3.9"/>
	<circle cx="180.9" cy="281.2" r="4.7"/>
	<circle cx="168.4" cy="265.7" r="5.5"/>
	<circle cx="165.3" cy="243.5" r="6.2"/>
	<circle cx="173.4" cy="223.1" r="5.5"/>
	<circle cx="187.7" cy="211.1" r="4.7"/>
	<circle cx="201.4" cy="206.9" r="3.9"/>
	<circle cx="212.2" cy="207.1" r="3.1"/>
	<circle cx="220.1" cy="209.1" r="2.3"/>
	<circle cx="225.6" cy="211.7" r="1.6"/>
	<circle cx="229.6" cy="214.3" r="0.8"/>
	<circle cx="232.4" cy="216.6" r="0"/>
	<circle cx="225.6" cy="276.7" r="0.6"/>
	<circle cx="221.1" cy="278.4" r="1.2"/>
	<circle cx="215.3" cy="279.5" r="1.9"/>
	<circle cx="208.1" cy="279.1" r="2.5"/>
	<circle cx="199.5" cy="276.3" r="3.1"/>
	<circle cx="190.7" cy="269.7" r="3.8"/>
	<circle cx="184.2" cy="258.8" r="4.4"/>
	<circle cx="182.8" cy="245.2" r="5"/>
	<circle cx="186.8" cy="232" r="4.4"/>
	<circle cx="194.6" cy="222.5" r="3.8"/>
	<circle cx="203.5" cy="217.3" r="3.1"/>
	<circle cx="211.6" cy="215.4" r="2.5"/>
	<circle cx="218.2" cy="215.4" r="1.9"/>
	<circle cx="223.4" cy="216.4" r="1.2"/>
	<circle cx="227.3" cy="217.8" r="0.6"/>
	<circle cx="230.3" cy="219.4" r="0"/>
	<circle cx="224.3" cy="272.7" r="0.5"/>
	<circle cx="220.3" cy="273.4" r="0.9"/>
	<circle cx="215.5" cy="273.2" r="1.4"/>
	<circle cx="209.9" cy="271.8" r="1.9"/>
	<circle cx="203.9" cy="268.6" r="2.3"/>
	<circle cx="198.4" cy="262.9" r="2.8"/>
	<circle cx="194.7" cy="255" r="3.3"/>
	<circle cx="193.9" cy="245.8" r="3.8"/>
	<circle cx="196.1" cy="236.7" r="3.3"/>
	<circle cx="200.8" cy="229.4" r="2.8"/>
	<circle cx="206.7" cy="224.5" r="2.3"/>
	<circle cx="212.6" cy="221.9" r="1.9"/>
	<circle cx="217.8" cy="220.8" r="1.4"/>
	<circle cx="222.3" cy="220.8" r="0.9"/>
	<circle cx="225.9" cy="221.3" r="0.5"/>
	<circle cx="228.8" cy="222.2" r="0"/>
	<circle cx="223.9" cy="269.1" r="0.3"/>
	<circle cx="220.4" cy="269.1" r="0.6"/>
	<circle cx="216.5" cy="268.3" r="0.9"/>
	<circle cx="212.2" cy="266.4" r="1.2"/>
	<circle cx="208" cy="263.3" r="1.6"/>
	<circle cx="204.3" cy="258.6" r="1.9"/>
	<circle cx="202" cy="252.6" r="2.2"/>
	<circle cx="201.5" cy="246" r="2.5"/>
	<circle cx="202.9" cy="239.3" r="2.2"/>
	<circle cx="205.9" cy="233.7" r="1.9"/>
	<circle cx="209.9" cy="229.5" r="1.6"/>
	<circle cx="214.2" cy="226.7" r="1.2"/>
	<circle cx="218.3" cy="225.2" r="0.9"/>
	<circle cx="222.1" cy="224.5" r="0.6"/>
	<circle cx="225.3" cy="224.5" r="0.3"/>
	<circle cx="228" cy="224.9" r="0"/>
	<circle cx="223.9" cy="266" r="0.2"/>
	<circle cx="221" cy="265.5" r="0.3"/>
	<circle cx="217.8" cy="264.4" r="0.5"/>
	<circle cx="214.5" cy="262.4" r="0.6"/>
	<circle cx="211.4" cy="259.5" r="0.8"/>
	<circle cx="208.9" cy="255.6" r="0.9"/>
	<circle cx="207.3" cy="251" r="1.1"/>
	<circle cx="207" cy="245.9" r="1.2"/>
	<circle cx="207.9" cy="240.9" r="1.1"/>
	<circle cx="210" cy="236.5" r="0.9"/>
	<circle cx="212.8" cy="232.9" r="0.8"/>
	<circle cx="216" cy="230.3" r="0.6"/>
	<circle cx="219.3" cy="228.7" r="0.5"/>
	<circle cx="222.4" cy="227.7" r="0.3"/>
	<circle cx="225.2" cy="227.3" r="0.2"/>
	<circle cx="227.6" cy="227.3" r="0"/>
	<circle cx="224.3" cy="263.4" r="0"/>
	<circle cx="221.8" cy="262.6" r="0"/>
	<circle cx="219.2" cy="261.3" r="0"/>
	<circle cx="216.7" cy="259.3" r="0"/>
	<circle cx="214.4" cy="256.7" r="0"/>
	<circle cx="212.5" cy="253.5" r="0"/>
	<circle cx="211.4" cy="249.8" r="0"/>
	<circle cx="211.1" cy="245.8" r="0"/>
	<circle cx="211.8" cy="241.9" r="0"/>
	<circle cx="213.3" cy="238.3" r="0"/>
	<circle cx="215.4" cy="235.4" r="0"/>
	<circle cx="217.8" cy="233.1" r="0"/>
	<circle cx="220.4" cy="231.4" r="0"/>
	<circle cx="223" cy="230.4" r="0"/>
	<circle cx="225.4" cy="229.8" r="0"/>
	<circle cx="227.6" cy="229.6" r="0"/>
</g>
</svg>
