<?xml version="1.0" encoding="utf-8"?>
<!-- Generator: Adobe Illustrator 19.2.0, SVG Export Plug-In . SVG Version: 6.00 Build 0)  -->
<svg version="1.1" id="Layer_1" xmlns="http://www.w3.org/2000/svg" xmlns:xlink="http://www.w3.org/1999/xlink" x="0px" y="0px"
	 viewBox="0 0 500 500" style="enable-background:new 0 0 500 500;" xml:space="preserve">
<g>
	<circle cx="270.9" cy="260.3" r="0.1"/>
	<circle cx="272.9" cy="260.3" r="0.3"/>
	<circle cx="275.1" cy="260" r="0.4"/>
	<circle cx="277.5" cy="259.3" r="0.6"/>
	<circle cx="280" cy="258" r="0.7"/>
	<circle cx="282.5" cy="256" r="0.8"/>
	<circle cx="284.6" cy="253.4" r="1"/>
	<circle cx="286.1" cy="250" r="1.1"/>
	<circle cx="286.7" cy="246.3" r="1.2"/>
	<circle cx="286.2" cy="242.5" r="1.1"/>
	<circle cx="284.8" cy="239.1" r="1"/>
	<circle cx="282.8" cy="236.2" r="0.8"/>
	<circle cx="280.4" cy="234" r="0.7"/>
	<circle cx="277.9" cy="232.5" r="0.6"/>
	<circle cx="275.4" cy="231.6" r="0.4"/>
	<circle cx="273.2" cy="231.2" r="0.3"/>
	<circle cx="271.2" cy="231.1" r="0.1"/>
	<circle cx="269.4" cy="231.2" r="0"/>
	<circle cx="270.7" cy="262.3" r="0.3"/>
	<circle cx="273" cy="262.6" r="0.6"/>
	<circle cx="275.7" cy="262.7" r="0.8"/>
	<circle cx="278.7" cy="262.2" r="1.1"/>
	<circle cx="282" cy="261.1" r="1.4"/>
	<circle cx="285.3" cy="259" r="1.7"/>
	<circle cx="288.3" cy="255.8" r="1.9"/>
	<circle cx="290.5" cy="251.7" r="2.2"/>
	<circle cx="291.5" cy="246.8" r="2.5"/>
	<circle cx="290.8" cy="241.8" r="2.2"/>
	<circle cx="288.7" cy="237.3" r="1.9"/>
	<circle cx="285.8" cy="233.8" r="1.7"/>
	<circle cx="282.4" cy="231.4" r="1.4"/>
	<circle cx="279.1" cy="229.9" r="1.1"/>
	<circle cx="276.1" cy="229.2" r="0.8"/>
	<circle cx="273.3" cy="229" r="0.6"/>
	<circle cx="271" cy="229.2" r="0.3"/>
	<circle cx="269" cy="229.5" r="0"/>
	<circle cx="270.2" cy="264.4" r="0.4"/>
	<circle cx="272.7" cy="265.2" r="0.8"/>
	<circle cx="275.8" cy="265.8" r="1.2"/>
	<circle cx="279.5" cy="265.9" r="1.7"/>
	<circle cx="283.8" cy="265.1" r="2.1"/>
	<circle cx="288.4" cy="263.1" r="2.5"/>
	<circle cx="292.9" cy="259.4" r="2.9"/>
	<circle cx="296.3" cy="254" r="3.3"/>
	<circle cx="297.8" cy="247.4" r="3.8"/>
	<circle cx="296.7" cy="240.4" r="3.3"/>
	<circle cx="293.5" cy="234.5" r="2.9"/>
	<circle cx="289.1" cy="230.3" r="2.5"/>
	<circle cx="284.4" cy="227.8" r="2.1"/>
	<circle cx="280.1" cy="226.6" r="1.7"/>
	<circle cx="276.3" cy="226.3" r="1.2"/>
	<circle cx="273.1" cy="226.5" r="0.8"/>
	<circle cx="270.5" cy="227.1" r="0.4"/>
	<circle cx="268.4" cy="227.7" r="0"/>
	<circle cx="269.2" cy="266.7" r="0.6"/>
	<circle cx="271.9" cy="268.1" r="1.1"/>
	<circle cx="275.4" cy="269.4" r="1.7"/>
	<circle cx="279.8" cy="270.4" r="2.2"/>
	<circle cx="285.2" cy="270.4" r="2.8"/>
	<circle cx="291.6" cy="268.9" r="3.3"/>
	<circle cx="298.5" cy="264.8" r="3.9"/>
	<circle cx="304.2" cy="257.6" r="4.4"/>
	<circle cx="306.7" cy="248.1" r="5"/>
	<circle cx="304.7" cy="237.9" r="4.4"/>
	<circle cx="299.4" cy="230" r="3.9"/>
	<circle cx="292.6" cy="225.1" r="3.3"/>
	<circle cx="286" cy="222.9" r="2.8"/>
	<circle cx="280.4" cy="222.4" r="2.2"/>
	<circle cx="275.9" cy="222.8" r="1.7"/>
	<circle cx="272.4" cy="223.8" r="1.1"/>
	<circle cx="269.5" cy="224.8" r="0.6"/>
	<circle cx="267.3" cy="225.9" r="0"/>
	<circle cx="267.7" cy="268.9" r="0.7"/>
	<circle cx="270.4" cy="271.1" r="1.4"/>
	<circle cx="274" cy="273.4" r="2.1"/>
	<circle cx="278.9" cy="275.6" r="2.8"/>
	<circle cx="285.5" cy="277.2" r="3.5"/>
	<circle cx="294.3" cy="277.2" r="4.2"/>
	<circle cx="305" cy="273.5" r="4.9"/>
	<circle cx="315.2" cy="264" r="5.6"/>
	<circle cx="320.3" cy="248.9" r="6.2"/>
	<circle cx="316.4" cy="232.9" r="5.6"/>
	<circle cx="306.6" cy="222" r="4.9"/>
	<circle cx="295.7" cy="217.2" r="4.2"/>
	<circle cx="286.6" cy="216.3" r="3.5"/>
	<circle cx="279.7" cy="217.3" r="2.8"/>
	<circle cx="274.6" cy="219" r="2.1"/>
	<circle cx="270.8" cy="220.8" r="1.4"/>
	<circle cx="268" cy="222.6" r="0.7"/>
	<circle cx="265.8" cy="224.2" r="0"/>
	<circle cx="265.5" cy="271" r="0.8"/>
	<circle cx="268" cy="274" r="1.7"/>
	<circle cx="271.4" cy="277.4" r="2.5"/>
	<circle cx="276.3" cy="281.4" r="3.3"/>
	<circle cx="283.6" cy="285.6" r="4.2"/>
	<circle cx="294.8" cy="289" r="5"/>
	<circle cx="311.4" cy="288.4" r="5.8"/>
	<circle cx="331.7" cy="277.1" r="6.7"/>
	<circle cx="343.7" cy="250.4" r="7.5"/>
	<circle cx="334.3" cy="221.7" r="6.7"/>
	<circle cx="314.2" cy="207.6" r="5.8"/>
	<circle cx="296.8" cy="205.4" r="5"/>
	<circle cx="284.9" cy="207.9" r="4.2"/>
	<circle cx="277.1" cy="211.5" r="3.3"/>
	<circle cx="272" cy="215" r="2.5"/>
	<circle cx="268.4" cy="218" r="1.7"/>
	<circle cx="265.8" cy="220.5" r="0.8"/>
	<circle cx="263.9" cy="222.6" r="0"/>
	<circle cx="262.8" cy="272.6" r="1"/>
	<circle cx="264.7" cy="276.3" r="1.9"/>
	<circle cx="267.4" cy="281" r="2.9"/>
	<circle cx="271.4" cy="286.9" r="3.9"/>
	<circle cx="277.9" cy="294.5" r="4.9"/>
	<circle cx="289.5" cy="304.1" r="5.8"/>
	<circle cx="312" cy="313.8" r="6.8"/>
	<circle cx="354.8" cy="309.8" r="7.8"/>
	<circle cx="394.7" cy="254.4" r="8.8"/>
	<circle cx="362.5" cy="190.7" r="7.8"/>
	<circle cx="316.7" cy="181.2" r="6.8"/>
	<circle cx="291.8" cy="189.7" r="5.8"/>
	<circle cx="279.1" cy="198.9" r="4.9"/>
	<circle cx="272.1" cy="206.1" r="3.9"/>
	<circle cx="267.8" cy="211.6" r="2.9"/>
	<circle cx="265" cy="215.7" r="1.9"/>
	<circle cx="263" cy="218.9" r="1"/>
	<circle cx="261.5" cy="221.4" r="0"/>
	<circle cx="259.6" cy="273.6" r="1.1"/>
	<circle cx="260.7" cy="277.8" r="2.2"/>
	<circle cx="262.1" cy="283.2" r="3.3"/>
	<circle cx="264.1" cy="290.6" r="4.4"/>
	<circle cx="267.5" cy="301.1" r="5.6"/>
	<circle cx="274.2" cy="317.6" r="6.7"/>
	<circle cx="290.9" cy="346.4" r="7.8"/>
	<circle cx="353.2" cy="400.2" r="8.9"/>
	<circle cx="595.8" cy="285.7" r="10"/>
	<circle cx="374" cy="88.2" r="8.9"/>
	<circle cx="295.2" cy="144.2" r="7.8"/>
	<circle cx="275.6" cy="175" r="6.7"/>
	<circle cx="268.2" cy="192" r="5.6"/>
	<circle cx="264.5" cy="202.5" r="4.4"/>
	<circle cx="262.3" cy="209.4" r="3.3"/>
	<circle cx="260.8" cy="214.3" r="2.2"/>
	<circle cx="259.7" cy="217.9" r="1.1"/>
	<circle cx="258.8" cy="220.7" r="0"/>
	<circle cx="256.3" cy="273.8" r="1.2"/>
	<circle cx="256.3" cy="278.1" r="2.5"/>
	<circle cx="256.2" cy="283.7" r="3.8"/>
	<circle cx="255.7" cy="291.3" r="5"/>
	<circle cx="254.5" cy="302.4" r="6.2"/>
	<circle cx="251.5" cy="320.2" r="7.5"/>
	<circle cx="242.6" cy="353.9" r="8.8"/>
	<circle cx="200.1" cy="438.8" r="10"/>
	<circle cx="-368" cy="382.8" r="11.2"/>
	<circle cx="182.3" cy="36.1" r="10"/>
	<circle cx="240" cy="135.8" r="8.8"/>
	<circle cx="250.7" cy="172.6" r="7.5"/>
	<circle cx="254.2" cy="191.1" r="6.2"/>
	<circle cx="255.5" cy="202.1" r="5"/>
	<circle cx="256.1" cy="209.2" r="3.8"/>
	<circle cx="256.3" cy="214.2" r="2.5"/>
	<circle cx="256.2" cy="217.9" r="1.2"/>
	<circle cx="256" cy="220.6" r="0"/>
	<circle cx="252.9" cy="273" r="1.1"/>
	<circle cx="251.9" cy="277" r="2.2"/>
	<circle cx="250.3" cy="282" r="3.3"/>
	<circle cx="247.6" cy="288.4" r="4.4"/>
	<circle cx="242.5" cy="297.2" r="5.6"/>
	<circle cx="232.5" cy="309.2" r="6.7"/>
	<circle cx="210.3" cy="324.5" r="7.8"/>
	<circle cx="158" cy="330.2" r="8.9"/>
	<circle cx="93.6" cy="258" r="10"/>
	<circle cx="146.9" cy="170.4" r="8.9"/>
	<circle cx="205.1" cy="169.9" r="7.8"/>
	<circle cx="230.3" cy="184.6" r="6.7"/>
	<circle cx="241.4" cy="196.4" r="5.6"/>
	<circle cx="247" cy="204.8" r="4.4"/>
	<circle cx="250" cy="210.8" r="3.3"/>
	<circle cx="251.7" cy="215.2" r="2.2"/>
	<circle cx="252.7" cy="218.5" r="1.1"/>
	<circle cx="253.3" cy="221.1" r="0"/>
	<circle cx="249.9" cy="271.6" r="1"/>
	<circle cx="248.2" cy="274.9" r="1.9"/>
	<circle cx="245.6" cy="278.8" r="2.9"/>
	<circle cx="241.5" cy="283.4" r="3.9"/>
	<circle cx="234.9" cy="288.6" r="4.9"/>
	<circle cx="223.8" cy="293.8" r="5.8"/>
	<circle cx="205.6" cy="295.4" r="6.8"/>
	<circle cx="180.5" cy="284.5" r="7.8"/>
	<circle cx="164.3" cy="251.5" r="8.8"/>
	<circle cx="176.9" cy="215.4" r="7.8"/>
	<circle cx="202.2" cy="200.9" r="6.8"/>
	<circle cx="221.6" cy="200.9" r="5.8"/>
	<circle cx="233.5" cy="205.2" r="4.9"/>
	<circle cx="240.7" cy="209.8" r="3.9"/>
	<circle cx="245.1" cy="213.9" r="2.9"/>
	<circle cx="247.8" cy="217.3" r="1.9"/>
	<circle cx="249.7" cy="220" r="1"/>
	<circle cx="250.8" cy="222.2" r="0"/>
	<circle cx="247.5" cy="269.6" r="0.8"/>
	<circle cx="245.3" cy="272.1" r="1.7"/>
	<circle cx="242.3" cy="274.8" r="2.5"/>
	<circle cx="237.8" cy="277.6" r="3.3"/>
	<circle cx="231.4" cy="279.9" r="4.2"/>
	<circle cx="222.3" cy="280.7" r="5"/>
	<circle cx="210.5" cy="277.6" r="5.8"/>
	<circle cx="198.4" cy="267.4" r="6.7"/>
	<circle cx="192.4" cy="249.6" r="7.5"/>
	<circle cx="196.9" cy="230.6" r="6.7"/>
	<circle cx="208.6" cy="218.6" r="5.8"/>
	<circle cx="220.7" cy="214.1" r="5"/>
	<circle cx="230.2" cy="213.9" r="4.2"/>
	<circle cx="237" cy="215.6" r="3.3"/>
	<circle cx="241.7" cy="217.8" r="2.5"/>
	<circle cx="244.9" cy="220" r="1.7"/>
	<circle cx="247.2" cy="221.9" r="0.8"/>
	<circle cx="248.8" cy="223.6" r="0"/>
	<circle cx="245.7" cy="267.4" r="0.7"/>
	<circle cx="243.3" cy="269.1" r="1.4"/>
	<circle cx="240.2" cy="270.8" r="2.1"/>
	<circle cx="236.1" cy="272.1" r="2.8"/>
	<circle cx="230.7" cy="272.6" r="3.5"/>
	<circle cx="224" cy="271.4" r="4.2"/>
	<circle cx="216.6" cy="267.3" r="4.9"/>
	<circle cx="210.2" cy="259.5" r="5.6"/>
	<circle cx="207.5" cy="248.6" r="6.2"/>
	<circle cx="209.5" cy="236.9" r="5.6"/>
	<circle cx="215.5" cy="228.1" r="4.9"/>
	<circle cx="222.9" cy="223.1" r="4.2"/>
	<circle cx="229.8" cy="221.1" r="3.5"/>
	<circle cx="235.4" cy="221" r="2.8"/>
	<circle cx="239.7" cy="221.7" r="2.1"/>
	<circle cx="242.9" cy="222.9" r="1.4"/>
	<circle cx="245.3" cy="224.1" r="0.7"/>
	<circle cx="247.1" cy="225.3" r="0"/>
	<circle cx="244.4" cy="265.1" r="0.6"/>
	<circle cx="242.1" cy="266.2" r="1.1"/>
	<circle cx="239.3" cy="267" r="1.7"/>
	<circle cx="235.7" cy="267.3" r="2.2"/>
	<circle cx="231.4" cy="266.8" r="2.8"/>
	<circle cx="226.6" cy="264.9" r="3.3"/>
	<circle cx="221.8" cy="261.1" r="3.9"/>
	<circle cx="218.1" cy="255.2" r="4.4"/>
	<circle cx="216.7" cy="247.9" r="5"/>
	<circle cx="217.8" cy="240.1" r="4.4"/>
	<circle cx="221.2" cy="233.5" r="3.9"/>
	<circle cx="225.9" cy="229.1" r="3.3"/>
	<circle cx="230.7" cy="226.5" r="2.8"/>
	<circle cx="235.1" cy="225.5" r="2.2"/>
	<circle cx="238.8" cy="225.3" r="1.7"/>
	<circle cx="241.7" cy="225.7" r="1.1"/>
	<circle cx="244.1" cy="226.4" r="0.6"/>
	<circle cx="245.9" cy="227.2" r="0"/>
	<circle cx="243.7" cy="263" r="0.4"/>
	<circle cx="241.5" cy="263.5" r="0.8"/>
	<circle cx="239" cy="263.7" r="1.2"/>
	<circle cx="236" cy="263.4" r="1.7"/>
	<circle cx="232.7" cy="262.4" r="2.1"/>
	<circle cx="229.2" cy="260.4" r="2.5"/>
	<circle cx="226" cy="257.1" r="2.9"/>
	<circle cx="223.8" cy="252.6" r="3.3"/>
	<circle cx="222.9" cy="247.3" r="3.8"/>
	<circle cx="223.5" cy="241.7" r="3.3"/>
	<circle cx="225.6" cy="236.8" r="2.9"/>
	<circle cx="228.7" cy="233" r="2.5"/>
	<circle cx="232.2" cy="230.5" r="2.1"/>
	<circle cx="235.5" cy="229.1" r="1.7"/>
	<circle cx="238.6" cy="228.4" r="1.2"/>
	<circle cx="241.2" cy="228.3" r="0.8"/>
	<circle cx="243.4" cy="228.6" r="0.4"/>
	<circle cx="245.2" cy="229" r="0"/>
	<circle cx="243.3" cy="260.9" r="0.3"/>
	<circle cx="241.4" cy="261.1" r="0.6"/>
	<circle cx="239.2" cy="260.9" r="0.8"/>
	<circle cx="236.7" cy="260.3" r="1.1"/>
	<circle cx="234.1" cy="259.1" r="1.4"/>
	<circle cx="231.6" cy="257.1" r="1.7"/>
	<circle cx="229.4" cy="254.3" r="1.9"/>
	<circle cx="227.9" cy="250.8" r="2.2"/>
	<circle cx="227.3" cy="246.8" r="2.5"/>
	<circle cx="227.7" cy="242.6" r="2.2"/>
	<circle cx="229.1" cy="238.8" r="1.9"/>
	<circle cx="231.2" cy="235.7" r="1.7"/>
	<circle cx="233.7" cy="233.4" r="1.4"/>
	<circle cx="236.3" cy="231.9" r="1.1"/>
	<circle cx="238.8" cy="231" r="0.8"/>
	<circle cx="241" cy="230.6" r="0.6"/>
	<circle cx="243" cy="230.5" r="0.3"/>
	<circle cx="244.7" cy="230.7" r="0"/>
	<circle cx="243.2" cy="259.1" r="0.1"/>
	<circle cx="241.5" cy="259" r="0.3"/>
	<circle cx="239.6" cy="258.6" r="0.4"/>
	<circle cx="237.6" cy="257.8" r="0.6"/>
	<circle cx="235.5" cy="256.5" r="0.7"/>
	<circle cx="233.6" cy="254.6" r="0.8"/>
	<circle cx="232" cy="252.3" r="1"/>
	<circle cx="230.9" cy="249.4" r="1.1"/>
	<circle cx="230.6" cy="246.3" r="1.2"/>
	<circle cx="230.8" cy="243.1" r="1.1"/>
	<circle cx="231.8" cy="240.1" r="1"/>
	<circle cx="233.4" cy="237.5" r="0.8"/>
	<circle cx="235.2" cy="235.5" r="0.7"/>
	<circle cx="237.3" cy="234.1" r="0.6"/>
	<circle cx="239.3" cy="233.1" r="0.4"/>
	<circle cx="241.2" cy="232.5" r="0.3"/>
	<circle cx="242.9" cy="232.3" r="0.1"/>
	<circle cx="244.5" cy="232.2" r="0"/>
	<circle cx="243.3" cy="257.5" r="0"/>
	<circle cx="241.8" cy="257.2" r="0"/>
	<circle cx="240.1" cy="256.6" r="0"/>
	<circle cx="238.5" cy="255.7" r="0"/>
	<circle cx="236.8" cy="254.4" r="0"/>
	<circle cx="235.4" cy="252.8" r="0"/>
	<circle cx="234.1" cy="250.7" r="0"/>
	<circle cx="233.3" cy="248.4" r="0"/>
	<circle cx="233" cy="245.8" r="0"/>
	<circle cx="233.2" cy="243.3" r="0"/>
	<circle cx="234" cy="240.9" r="0"/>
	<circle cx="235.2" cy="238.8" r="0"/>
	<circle cx="236.6" cy="237.1" r="0"/>
	<circle cx="238.2" cy="235.7" r="0"/>
	<circle cx="239.9" cy="234.8" r="0"/>
	<circle cx="241.5" cy="234.2" r="0"/>
	<circle cx="243.1" cy="233.8" r="0"/>
	<circle cx="244.5" cy="233.7" r="0"/>
</g>
</svg>
